<svg xmlns="http://www.w3.org/2000/svg" width="43.854" height="50.119" viewBox="0 0 43.854 50.119"><defs><style>.a{fill:#fff;}</style></defs><path class="a" d="M14.487,28.192H10.572A1.178,1.178,0,0,1,9.4,27.017V23.1a1.178,1.178,0,0,1,1.175-1.175h3.916A1.178,1.178,0,0,1,15.662,23.1v3.916A1.178,1.178,0,0,1,14.487,28.192Zm10.572-1.175V23.1a1.178,1.178,0,0,0-1.175-1.175H19.969A1.178,1.178,0,0,0,18.794,23.1v3.916a1.178,1.178,0,0,0,1.175,1.175h3.916A1.178,1.178,0,0,0,25.059,27.017Zm9.4,0V23.1a1.178,1.178,0,0,0-1.175-1.175H29.366A1.178,1.178,0,0,0,28.192,23.1v3.916a1.178,1.178,0,0,0,1.175,1.175h3.916A1.178,1.178,0,0,0,34.456,27.017Zm-9.4,9.4V32.5a1.178,1.178,0,0,0-1.175-1.175H19.969A1.178,1.178,0,0,0,18.794,32.5v3.916a1.178,1.178,0,0,0,1.175,1.175h3.916A1.178,1.178,0,0,0,25.059,36.414Zm-9.4,0V32.5a1.178,1.178,0,0,0-1.175-1.175H10.572A1.178,1.178,0,0,0,9.4,32.5v3.916a1.178,1.178,0,0,0,1.175,1.175h3.916A1.178,1.178,0,0,0,15.662,36.414Zm18.794,0V32.5a1.178,1.178,0,0,0-1.175-1.175H29.366A1.178,1.178,0,0,0,28.192,32.5v3.916a1.178,1.178,0,0,0,1.175,1.175h3.916A1.178,1.178,0,0,0,34.456,36.414Zm9.4-25.451V45.42a4.7,4.7,0,0,1-4.7,4.7H4.7A4.7,4.7,0,0,1,0,45.42V10.963a4.7,4.7,0,0,1,4.7-4.7H9.4V1.175A1.178,1.178,0,0,1,10.572,0h3.916a1.178,1.178,0,0,1,1.175,1.175v5.09h12.53V1.175A1.178,1.178,0,0,1,29.366,0h3.916a1.178,1.178,0,0,1,1.175,1.175v5.09h4.7A4.7,4.7,0,0,1,43.854,10.963Zm-4.7,33.869V15.662H4.7V44.833a.589.589,0,0,0,.587.587H38.568A.589.589,0,0,0,39.155,44.833Z"/></svg>