<svg xmlns="http://www.w3.org/2000/svg" width="54.843" height="36.563" viewBox="0 0 54.843 36.563"><defs><style>.a{fill:#fff;}</style></defs><path class="a" d="M52.558,64H10.664a4.578,4.578,0,0,0-4.308,3.047H2.285A2.285,2.285,0,0,0,0,69.332v25.9a5.332,5.332,0,0,0,5.332,5.332H52.558a2.285,2.285,0,0,0,2.285-2.285V66.285A2.285,2.285,0,0,0,52.558,64ZM4.57,95.23V71.617H6.094V95.23a.762.762,0,1,1-1.523,0Zm45.7.762H10.609a5.374,5.374,0,0,0,.055-.762V68.57H50.273Zm-33.9-11.426H29.326a1.143,1.143,0,0,0,1.143-1.143V74.283a1.143,1.143,0,0,0-1.143-1.143H16.377a1.143,1.143,0,0,0-1.143,1.143v9.141A1.143,1.143,0,0,0,16.377,84.566Zm2.666-7.617H26.66v3.809H19.043Zm-3.809,13.33V87.994a1.143,1.143,0,0,1,1.143-1.143H29.326a1.143,1.143,0,0,1,1.143,1.143v2.285a1.143,1.143,0,0,1-1.143,1.143H16.377A1.143,1.143,0,0,1,15.234,90.279Zm18.281,0V87.994a1.143,1.143,0,0,1,1.143-1.143h9.9A1.143,1.143,0,0,1,45.7,87.994v2.285a1.143,1.143,0,0,1-1.143,1.143h-9.9A1.143,1.143,0,0,1,33.515,90.279Zm0-13.711V74.283a1.143,1.143,0,0,1,1.143-1.143h9.9A1.143,1.143,0,0,1,45.7,74.283v2.285a1.143,1.143,0,0,1-1.143,1.143h-9.9A1.143,1.143,0,0,1,33.515,76.568Zm0,6.855V81.139A1.143,1.143,0,0,1,34.658,80h9.9A1.143,1.143,0,0,1,45.7,81.139v2.285a1.143,1.143,0,0,1-1.143,1.143h-9.9A1.143,1.143,0,0,1,33.515,83.424Z" transform="translate(0 -64)"/></svg>