<svg xmlns="http://www.w3.org/2000/svg" width="37.207" height="54.119" viewBox="0 0 37.207 54.119"><defs><style>.a{fill:#fff;}</style></defs><path class="a" d="M35.516,20.295H33.824a1.691,1.691,0,0,0-1.691,1.691v5.074A13.545,13.545,0,0,1,17.251,40.524c-7.029-.686-12.178-7-12.178-14.067V21.986a1.691,1.691,0,0,0-1.691-1.691H1.691A1.691,1.691,0,0,0,0,21.986v4.245c0,9.475,6.762,17.922,16.067,19.2v3.61H10.147a1.691,1.691,0,0,0-1.691,1.691v1.691a1.691,1.691,0,0,0,1.691,1.691H27.059a1.691,1.691,0,0,0,1.691-1.691V50.737a1.691,1.691,0,0,0-1.691-1.691H21.14v-3.57A18.621,18.621,0,0,0,37.207,27.059V21.986A1.691,1.691,0,0,0,35.516,20.295ZM18.6,37.207A10.147,10.147,0,0,0,28.751,27.059V10.147a10.147,10.147,0,1,0-20.295,0V27.059A10.147,10.147,0,0,0,18.6,37.207ZM13.53,10.147a5.074,5.074,0,0,1,10.147,0H19.449a.845.845,0,0,0-.846.846v1.691a.845.845,0,0,0,.846.846h4.228v3.382H19.449a.845.845,0,0,0-.846.846v1.691a.845.845,0,0,0,.846.846h4.228v3.382H19.449a.845.845,0,0,0-.846.846v1.691a.845.845,0,0,0,.846.846h4.228a5.074,5.074,0,0,1-10.147,0Z" transform="translate(0)"/></svg>